<mxfile host="app.diagrams.net" agent="Mozilla/5.0 (Windows NT 10.0; Win64; x64) AppleWebKit/537.36 (KHTML, like Gecko) Chrome/135.0.0.0 Safari/537.36 Edg/135.0.0.0" version="26.2.15">
  <diagram name="Page-1" id="0783ab3e-0a74-02c8-0abd-f7b4e66b4bec">
    <mxGraphModel dx="1149" dy="671" grid="1" gridSize="10" guides="1" tooltips="1" connect="1" arrows="1" fold="1" page="1" pageScale="1" pageWidth="850" pageHeight="1100" background="none" math="0" shadow="0">
      <root>
        <mxCell id="0" />
        <mxCell id="1" parent="0" />
        <mxCell id="1c1d494c118603dd-1" value="Đặt hàng" style="swimlane;html=1;childLayout=stackLayout;startSize=20;rounded=0;shadow=0;comic=0;labelBackgroundColor=none;strokeWidth=1;fontFamily=Verdana;fontSize=12;align=center;" parent="1" vertex="1">
          <mxGeometry x="40" y="20" width="990" height="1422.5" as="geometry" />
        </mxCell>
        <mxCell id="1c1d494c118603dd-2" value="User" style="swimlane;html=1;startSize=20;" parent="1c1d494c118603dd-1" vertex="1">
          <mxGeometry y="20" width="250" height="1402.5" as="geometry" />
        </mxCell>
        <mxCell id="mQbM6AG0IIh_m1ekyTbO-1" value="" style="ellipse;html=1;shape=startState;fillColor=#000000;strokeColor=#ff0000;" vertex="1" parent="1c1d494c118603dd-2">
          <mxGeometry x="70" y="50" width="30" height="30" as="geometry" />
        </mxCell>
        <mxCell id="mQbM6AG0IIh_m1ekyTbO-2" value="" style="edgeStyle=orthogonalEdgeStyle;html=1;verticalAlign=bottom;endArrow=open;endSize=8;strokeColor=#ff0000;rounded=0;exitX=0.5;exitY=1;exitDx=0;exitDy=0;" edge="1" source="mQbM6AG0IIh_m1ekyTbO-1" parent="1c1d494c118603dd-2">
          <mxGeometry relative="1" as="geometry">
            <mxPoint x="85" y="140" as="targetPoint" />
          </mxGeometry>
        </mxCell>
        <mxCell id="mQbM6AG0IIh_m1ekyTbO-3" value="Chọn giao diện giỏ hàng trên web" style="rounded=1;whiteSpace=wrap;html=1;" vertex="1" parent="1c1d494c118603dd-2">
          <mxGeometry x="25" y="140" width="120" height="60" as="geometry" />
        </mxCell>
        <mxCell id="mQbM6AG0IIh_m1ekyTbO-6" value="Nhập địa chỉ, số điện thoại nhận hàng" style="rounded=1;whiteSpace=wrap;html=1;" vertex="1" parent="1c1d494c118603dd-2">
          <mxGeometry x="25" y="250" width="120" height="60" as="geometry" />
        </mxCell>
        <mxCell id="mQbM6AG0IIh_m1ekyTbO-22" value="Cung cấp hình thức thanh toán" style="rounded=1;whiteSpace=wrap;html=1;" vertex="1" parent="1c1d494c118603dd-2">
          <mxGeometry x="25" y="520" width="135" height="60" as="geometry" />
        </mxCell>
        <mxCell id="1c1d494c118603dd-3" value="Hệ thống" style="swimlane;html=1;startSize=20;" parent="1c1d494c118603dd-1" vertex="1">
          <mxGeometry x="250" y="20" width="390" height="1402.5" as="geometry" />
        </mxCell>
        <mxCell id="mQbM6AG0IIh_m1ekyTbO-5" value="Hiển thị giao diện trang giỏ hàng" style="rounded=1;whiteSpace=wrap;html=1;" vertex="1" parent="1c1d494c118603dd-3">
          <mxGeometry x="40" y="140" width="120" height="60" as="geometry" />
        </mxCell>
        <mxCell id="mQbM6AG0IIh_m1ekyTbO-9" value="Thực hiện xử lý đơn hàng" style="rounded=1;whiteSpace=wrap;html=1;" vertex="1" parent="1c1d494c118603dd-3">
          <mxGeometry x="60" y="250" width="120" height="60" as="geometry" />
        </mxCell>
        <mxCell id="mQbM6AG0IIh_m1ekyTbO-11" value="Kiểm tra xem số lượng sản phẩm trong kho có đủ?" style="rounded=1;whiteSpace=wrap;html=1;" vertex="1" parent="1c1d494c118603dd-3">
          <mxGeometry x="60" y="340" width="120" height="60" as="geometry" />
        </mxCell>
        <mxCell id="mQbM6AG0IIh_m1ekyTbO-12" value="" style="endArrow=classic;html=1;rounded=0;exitX=0.5;exitY=1;exitDx=0;exitDy=0;" edge="1" parent="1c1d494c118603dd-3" source="mQbM6AG0IIh_m1ekyTbO-11">
          <mxGeometry width="50" height="50" relative="1" as="geometry">
            <mxPoint x="110" y="300" as="sourcePoint" />
            <mxPoint x="120" y="430" as="targetPoint" />
          </mxGeometry>
        </mxCell>
        <mxCell id="mQbM6AG0IIh_m1ekyTbO-17" value="Thông báo sản phẩm đã hết hàng" style="rounded=1;whiteSpace=wrap;html=1;" vertex="1" parent="1c1d494c118603dd-3">
          <mxGeometry x="220" y="420" width="110" height="60" as="geometry" />
        </mxCell>
        <mxCell id="mQbM6AG0IIh_m1ekyTbO-18" value="" style="ellipse;html=1;shape=endState;fillColor=#000000;strokeColor=#ff0000;" vertex="1" parent="1c1d494c118603dd-3">
          <mxGeometry x="260" y="330" width="30" height="30" as="geometry" />
        </mxCell>
        <mxCell id="mQbM6AG0IIh_m1ekyTbO-19" value="" style="endArrow=classic;html=1;rounded=0;exitX=0.5;exitY=0;exitDx=0;exitDy=0;entryX=0.5;entryY=1;entryDx=0;entryDy=0;" edge="1" parent="1c1d494c118603dd-3" source="mQbM6AG0IIh_m1ekyTbO-17" target="mQbM6AG0IIh_m1ekyTbO-18">
          <mxGeometry width="50" height="50" relative="1" as="geometry">
            <mxPoint x="110" y="300" as="sourcePoint" />
            <mxPoint x="160" y="250" as="targetPoint" />
          </mxGeometry>
        </mxCell>
        <mxCell id="mQbM6AG0IIh_m1ekyTbO-20" value="Yêu cầu người dùng chọn hình thức thanh toán" style="rounded=1;whiteSpace=wrap;html=1;" vertex="1" parent="1c1d494c118603dd-3">
          <mxGeometry x="60" y="520" width="140" height="60" as="geometry" />
        </mxCell>
        <mxCell id="mQbM6AG0IIh_m1ekyTbO-23" value="Kiểm tra hình thức thanh toán" style="rounded=1;whiteSpace=wrap;html=1;" vertex="1" parent="1c1d494c118603dd-3">
          <mxGeometry x="60" y="620" width="140" height="60" as="geometry" />
        </mxCell>
        <mxCell id="mQbM6AG0IIh_m1ekyTbO-28" value="" style="rhombus;whiteSpace=wrap;html=1;fontColor=#000000;fillColor=#ffffc0;strokeColor=#ff0000;" vertex="1" parent="1c1d494c118603dd-3">
          <mxGeometry x="90" y="720" width="80" height="40" as="geometry" />
        </mxCell>
        <mxCell id="mQbM6AG0IIh_m1ekyTbO-29" value="[Thẻ tín dụng]" style="edgeStyle=orthogonalEdgeStyle;html=1;align=left;verticalAlign=bottom;endArrow=open;endSize=8;strokeColor=#ff0000;rounded=0;" edge="1" source="mQbM6AG0IIh_m1ekyTbO-28" parent="1c1d494c118603dd-3">
          <mxGeometry x="-1" relative="1" as="geometry">
            <mxPoint x="250" y="740" as="targetPoint" />
          </mxGeometry>
        </mxCell>
        <mxCell id="mQbM6AG0IIh_m1ekyTbO-30" value="[Tiền mặt]" style="edgeStyle=orthogonalEdgeStyle;html=1;align=left;verticalAlign=top;endArrow=open;endSize=8;strokeColor=#ff0000;rounded=0;exitX=0.5;exitY=1;exitDx=0;exitDy=0;" edge="1" source="mQbM6AG0IIh_m1ekyTbO-28" parent="1c1d494c118603dd-3">
          <mxGeometry x="-1" relative="1" as="geometry">
            <mxPoint x="130" y="1060" as="targetPoint" />
            <mxPoint x="130" y="770" as="sourcePoint" />
            <Array as="points" />
            <mxPoint as="offset" />
          </mxGeometry>
        </mxCell>
        <mxCell id="mQbM6AG0IIh_m1ekyTbO-31" value="" style="endArrow=classic;html=1;rounded=0;exitX=0.5;exitY=1;exitDx=0;exitDy=0;entryX=0.5;entryY=0;entryDx=0;entryDy=0;" edge="1" parent="1c1d494c118603dd-3" source="mQbM6AG0IIh_m1ekyTbO-23" target="mQbM6AG0IIh_m1ekyTbO-28">
          <mxGeometry width="50" height="50" relative="1" as="geometry">
            <mxPoint x="-20" y="940" as="sourcePoint" />
            <mxPoint x="30" y="890" as="targetPoint" />
          </mxGeometry>
        </mxCell>
        <mxCell id="mQbM6AG0IIh_m1ekyTbO-32" value="Gửi yêu cầu xác thực tới ngân hàng" style="rounded=1;whiteSpace=wrap;html=1;" vertex="1" parent="1c1d494c118603dd-3">
          <mxGeometry x="250" y="710" width="110" height="60" as="geometry" />
        </mxCell>
        <mxCell id="mQbM6AG0IIh_m1ekyTbO-52" value="Hiển thị thông báo thanh toán thành công" style="rounded=1;whiteSpace=wrap;html=1;" vertex="1" parent="1c1d494c118603dd-3">
          <mxGeometry x="220" y="990" width="120" height="60" as="geometry" />
        </mxCell>
        <mxCell id="mQbM6AG0IIh_m1ekyTbO-54" value="" style="endArrow=classic;html=1;rounded=0;exitX=0;exitY=0.5;exitDx=0;exitDy=0;" edge="1" parent="1c1d494c118603dd-3" source="mQbM6AG0IIh_m1ekyTbO-52">
          <mxGeometry width="50" height="50" relative="1" as="geometry">
            <mxPoint x="180" y="850" as="sourcePoint" />
            <mxPoint x="130" y="1060" as="targetPoint" />
            <Array as="points">
              <mxPoint x="130" y="1020" />
            </Array>
          </mxGeometry>
        </mxCell>
        <mxCell id="mQbM6AG0IIh_m1ekyTbO-55" value="" style="html=1;points=[];perimeter=orthogonalPerimeter;fillColor=strokeColor;rotation=-90;" vertex="1" parent="1c1d494c118603dd-3">
          <mxGeometry x="182.5" y="905" width="5" height="310" as="geometry" />
        </mxCell>
        <mxCell id="mQbM6AG0IIh_m1ekyTbO-59" value="Thông báo cho người dùng đơn hàng đã được tạo&amp;nbsp;" style="rounded=1;whiteSpace=wrap;html=1;" vertex="1" parent="1c1d494c118603dd-3">
          <mxGeometry x="20" y="1110" width="100" height="90" as="geometry" />
        </mxCell>
        <mxCell id="mQbM6AG0IIh_m1ekyTbO-60" value="Cập nhật số lượng sản phẩm của mặt hàng trong kho" style="rounded=1;whiteSpace=wrap;html=1;" vertex="1" parent="1c1d494c118603dd-3">
          <mxGeometry x="137.5" y="1110" width="115" height="90" as="geometry" />
        </mxCell>
        <mxCell id="mQbM6AG0IIh_m1ekyTbO-63" value="" style="html=1;points=[];perimeter=orthogonalPerimeter;fillColor=strokeColor;rotation=-90;" vertex="1" parent="1c1d494c118603dd-3">
          <mxGeometry x="187.5" y="1092.5" width="5" height="310" as="geometry" />
        </mxCell>
        <mxCell id="mQbM6AG0IIh_m1ekyTbO-61" value="" style="endArrow=classic;html=1;rounded=0;exitX=0.5;exitY=1;exitDx=0;exitDy=0;entryX=0.467;entryY=0.114;entryDx=0;entryDy=0;entryPerimeter=0;" edge="1" parent="1c1d494c118603dd-3" source="mQbM6AG0IIh_m1ekyTbO-59" target="mQbM6AG0IIh_m1ekyTbO-63">
          <mxGeometry width="50" height="50" relative="1" as="geometry">
            <mxPoint x="150" y="1120" as="sourcePoint" />
            <mxPoint x="70" y="1240" as="targetPoint" />
          </mxGeometry>
        </mxCell>
        <mxCell id="mQbM6AG0IIh_m1ekyTbO-62" value="" style="endArrow=classic;html=1;rounded=0;entryX=0.822;entryY=0.504;entryDx=0;entryDy=0;entryPerimeter=0;" edge="1" parent="1c1d494c118603dd-3" target="mQbM6AG0IIh_m1ekyTbO-63">
          <mxGeometry width="50" height="50" relative="1" as="geometry">
            <mxPoint x="190" y="1201" as="sourcePoint" />
            <mxPoint x="203" y="1240" as="targetPoint" />
          </mxGeometry>
        </mxCell>
        <mxCell id="mQbM6AG0IIh_m1ekyTbO-65" value="" style="ellipse;html=1;shape=endState;fillColor=#000000;strokeColor=#ff0000;" vertex="1" parent="1c1d494c118603dd-3">
          <mxGeometry x="175" y="1310" width="30" height="30" as="geometry" />
        </mxCell>
        <mxCell id="mQbM6AG0IIh_m1ekyTbO-68" value="Cập nhật danh sách đơn hàng đang vận chuyển cho người dùng" style="rounded=1;whiteSpace=wrap;html=1;" vertex="1" parent="1c1d494c118603dd-3">
          <mxGeometry x="270" y="1110" width="110" height="90" as="geometry" />
        </mxCell>
        <mxCell id="mQbM6AG0IIh_m1ekyTbO-69" value="" style="endArrow=classic;html=1;rounded=0;exitX=0.5;exitY=0.903;exitDx=0;exitDy=0;exitPerimeter=0;entryX=0.359;entryY=-0.031;entryDx=0;entryDy=0;entryPerimeter=0;" edge="1" parent="1c1d494c118603dd-3" source="mQbM6AG0IIh_m1ekyTbO-55" target="mQbM6AG0IIh_m1ekyTbO-68">
          <mxGeometry width="50" height="50" relative="1" as="geometry">
            <mxPoint x="180" y="1070" as="sourcePoint" />
            <mxPoint x="230" y="1020" as="targetPoint" />
          </mxGeometry>
        </mxCell>
        <mxCell id="1c1d494c118603dd-4" value="Hệ thống ngân hàng" style="swimlane;html=1;startSize=20;" parent="1c1d494c118603dd-1" vertex="1">
          <mxGeometry x="640" y="20" width="350" height="1402.5" as="geometry" />
        </mxCell>
        <mxCell id="mQbM6AG0IIh_m1ekyTbO-34" value="Tiến hành xác thực thông tin thẻ" style="rounded=1;whiteSpace=wrap;html=1;" vertex="1" parent="1c1d494c118603dd-4">
          <mxGeometry x="60" y="710" width="120" height="60" as="geometry" />
        </mxCell>
        <mxCell id="mQbM6AG0IIh_m1ekyTbO-36" value="Kiểm tra số dư tài khoản" style="rounded=1;whiteSpace=wrap;html=1;" vertex="1" parent="1c1d494c118603dd-4">
          <mxGeometry x="60" y="800" width="120" height="60" as="geometry" />
        </mxCell>
        <mxCell id="mQbM6AG0IIh_m1ekyTbO-38" value="" style="rhombus;whiteSpace=wrap;html=1;fontColor=#000000;fillColor=#ffffc0;strokeColor=#ff0000;" vertex="1" parent="1c1d494c118603dd-4">
          <mxGeometry x="80" y="890" width="80" height="40" as="geometry" />
        </mxCell>
        <mxCell id="mQbM6AG0IIh_m1ekyTbO-39" value="[Không đủ]" style="edgeStyle=orthogonalEdgeStyle;html=1;align=left;verticalAlign=bottom;endArrow=open;endSize=8;strokeColor=#ff0000;rounded=0;entryX=0;entryY=0.5;entryDx=0;entryDy=0;" edge="1" source="mQbM6AG0IIh_m1ekyTbO-38" parent="1c1d494c118603dd-4" target="mQbM6AG0IIh_m1ekyTbO-41">
          <mxGeometry x="-1" relative="1" as="geometry">
            <mxPoint x="210" y="910" as="targetPoint" />
          </mxGeometry>
        </mxCell>
        <mxCell id="mQbM6AG0IIh_m1ekyTbO-40" value="[Đủ]" style="edgeStyle=orthogonalEdgeStyle;html=1;align=left;verticalAlign=top;endArrow=open;endSize=8;strokeColor=#ff0000;rounded=0;" edge="1" source="mQbM6AG0IIh_m1ekyTbO-38" parent="1c1d494c118603dd-4">
          <mxGeometry x="-1" relative="1" as="geometry">
            <mxPoint x="120" y="990" as="targetPoint" />
          </mxGeometry>
        </mxCell>
        <mxCell id="mQbM6AG0IIh_m1ekyTbO-41" value="Thông báo số dư tài khoản không đủ" style="rounded=1;whiteSpace=wrap;html=1;" vertex="1" parent="1c1d494c118603dd-4">
          <mxGeometry x="220" y="880" width="110" height="60" as="geometry" />
        </mxCell>
        <mxCell id="mQbM6AG0IIh_m1ekyTbO-43" value="" style="ellipse;html=1;shape=endState;fillColor=#000000;strokeColor=#ff0000;" vertex="1" parent="1c1d494c118603dd-4">
          <mxGeometry x="260" y="780" width="30" height="30" as="geometry" />
        </mxCell>
        <mxCell id="mQbM6AG0IIh_m1ekyTbO-50" value="Cập nhật số dư trong tài khoản" style="rounded=1;whiteSpace=wrap;html=1;" vertex="1" parent="1c1d494c118603dd-4">
          <mxGeometry x="60" y="990" width="120" height="60" as="geometry" />
        </mxCell>
        <mxCell id="mQbM6AG0IIh_m1ekyTbO-42" value="" style="endArrow=classic;html=1;rounded=0;exitX=0.5;exitY=0;exitDx=0;exitDy=0;entryX=0.5;entryY=1;entryDx=0;entryDy=0;" edge="1" parent="1c1d494c118603dd-4" source="mQbM6AG0IIh_m1ekyTbO-41" target="mQbM6AG0IIh_m1ekyTbO-43">
          <mxGeometry width="50" height="50" relative="1" as="geometry">
            <mxPoint x="-190" y="870" as="sourcePoint" />
            <mxPoint x="265" y="810" as="targetPoint" />
          </mxGeometry>
        </mxCell>
        <mxCell id="mQbM6AG0IIh_m1ekyTbO-37" value="" style="endArrow=classic;html=1;rounded=0;exitX=0.5;exitY=1;exitDx=0;exitDy=0;entryX=0.5;entryY=0;entryDx=0;entryDy=0;" edge="1" parent="1c1d494c118603dd-4" source="mQbM6AG0IIh_m1ekyTbO-36" target="mQbM6AG0IIh_m1ekyTbO-38">
          <mxGeometry width="50" height="50" relative="1" as="geometry">
            <mxPoint x="-210" y="840" as="sourcePoint" />
            <mxPoint x="100" y="890" as="targetPoint" />
          </mxGeometry>
        </mxCell>
        <mxCell id="mQbM6AG0IIh_m1ekyTbO-35" value="" style="endArrow=classic;html=1;rounded=0;exitX=0.5;exitY=1;exitDx=0;exitDy=0;entryX=0.5;entryY=0;entryDx=0;entryDy=0;" edge="1" parent="1c1d494c118603dd-4" source="mQbM6AG0IIh_m1ekyTbO-34" target="mQbM6AG0IIh_m1ekyTbO-36">
          <mxGeometry width="50" height="50" relative="1" as="geometry">
            <mxPoint x="-210" y="640" as="sourcePoint" />
            <mxPoint x="100" y="800" as="targetPoint" />
          </mxGeometry>
        </mxCell>
        <mxCell id="mQbM6AG0IIh_m1ekyTbO-7" value="" style="endArrow=classic;html=1;rounded=0;exitX=0.5;exitY=1;exitDx=0;exitDy=0;entryX=0.5;entryY=0;entryDx=0;entryDy=0;" edge="1" parent="1c1d494c118603dd-1" source="mQbM6AG0IIh_m1ekyTbO-5" target="mQbM6AG0IIh_m1ekyTbO-6">
          <mxGeometry width="50" height="50" relative="1" as="geometry">
            <mxPoint x="360" y="320" as="sourcePoint" />
            <mxPoint x="410" y="270" as="targetPoint" />
            <Array as="points">
              <mxPoint x="350" y="250" />
              <mxPoint x="85" y="250" />
            </Array>
          </mxGeometry>
        </mxCell>
        <mxCell id="mQbM6AG0IIh_m1ekyTbO-8" value="" style="endArrow=classic;html=1;rounded=0;exitX=1;exitY=0.5;exitDx=0;exitDy=0;" edge="1" parent="1c1d494c118603dd-1" source="mQbM6AG0IIh_m1ekyTbO-6">
          <mxGeometry width="50" height="50" relative="1" as="geometry">
            <mxPoint x="360" y="320" as="sourcePoint" />
            <mxPoint x="310" y="300" as="targetPoint" />
          </mxGeometry>
        </mxCell>
        <mxCell id="mQbM6AG0IIh_m1ekyTbO-21" value="" style="endArrow=classic;html=1;rounded=0;exitX=0;exitY=0.5;exitDx=0;exitDy=0;entryX=1;entryY=0.5;entryDx=0;entryDy=0;" edge="1" parent="1c1d494c118603dd-1" source="mQbM6AG0IIh_m1ekyTbO-20" target="mQbM6AG0IIh_m1ekyTbO-22">
          <mxGeometry width="50" height="50" relative="1" as="geometry">
            <mxPoint x="360" y="420" as="sourcePoint" />
            <mxPoint x="170" y="570" as="targetPoint" />
          </mxGeometry>
        </mxCell>
        <mxCell id="mQbM6AG0IIh_m1ekyTbO-24" value="" style="endArrow=classic;html=1;rounded=0;exitX=0.5;exitY=1;exitDx=0;exitDy=0;entryX=0;entryY=0.5;entryDx=0;entryDy=0;" edge="1" parent="1c1d494c118603dd-1" source="mQbM6AG0IIh_m1ekyTbO-22" target="mQbM6AG0IIh_m1ekyTbO-23">
          <mxGeometry width="50" height="50" relative="1" as="geometry">
            <mxPoint x="230" y="820" as="sourcePoint" />
            <mxPoint x="280" y="770" as="targetPoint" />
            <Array as="points">
              <mxPoint x="93" y="670" />
            </Array>
          </mxGeometry>
        </mxCell>
        <mxCell id="mQbM6AG0IIh_m1ekyTbO-33" value="" style="endArrow=classic;html=1;rounded=0;exitX=1;exitY=0.5;exitDx=0;exitDy=0;" edge="1" parent="1c1d494c118603dd-1" source="mQbM6AG0IIh_m1ekyTbO-32" target="mQbM6AG0IIh_m1ekyTbO-34">
          <mxGeometry width="50" height="50" relative="1" as="geometry">
            <mxPoint x="360" y="660" as="sourcePoint" />
            <mxPoint x="680" y="760" as="targetPoint" />
          </mxGeometry>
        </mxCell>
        <mxCell id="mQbM6AG0IIh_m1ekyTbO-4" value="" style="endArrow=classic;html=1;rounded=0;exitX=1;exitY=0.5;exitDx=0;exitDy=0;" edge="1" parent="1" source="mQbM6AG0IIh_m1ekyTbO-3">
          <mxGeometry width="50" height="50" relative="1" as="geometry">
            <mxPoint x="400" y="340" as="sourcePoint" />
            <mxPoint x="330" y="210" as="targetPoint" />
          </mxGeometry>
        </mxCell>
        <mxCell id="mQbM6AG0IIh_m1ekyTbO-10" value="" style="endArrow=classic;html=1;rounded=0;exitX=0.5;exitY=1;exitDx=0;exitDy=0;" edge="1" parent="1" source="mQbM6AG0IIh_m1ekyTbO-9">
          <mxGeometry width="50" height="50" relative="1" as="geometry">
            <mxPoint x="400" y="440" as="sourcePoint" />
            <mxPoint x="410" y="380" as="targetPoint" />
          </mxGeometry>
        </mxCell>
        <mxCell id="mQbM6AG0IIh_m1ekyTbO-14" value="" style="rhombus;whiteSpace=wrap;html=1;fontColor=#000000;fillColor=#ffffc0;strokeColor=#ff0000;" vertex="1" parent="1">
          <mxGeometry x="370" y="470" width="80" height="40" as="geometry" />
        </mxCell>
        <mxCell id="mQbM6AG0IIh_m1ekyTbO-15" value="Không đủ" style="edgeStyle=orthogonalEdgeStyle;html=1;align=left;verticalAlign=bottom;endArrow=open;endSize=8;strokeColor=#ff0000;rounded=0;" edge="1" source="mQbM6AG0IIh_m1ekyTbO-14" parent="1">
          <mxGeometry x="-1" relative="1" as="geometry">
            <mxPoint x="510" y="490" as="targetPoint" />
          </mxGeometry>
        </mxCell>
        <mxCell id="mQbM6AG0IIh_m1ekyTbO-16" value="Còn đủ" style="edgeStyle=orthogonalEdgeStyle;html=1;align=left;verticalAlign=top;endArrow=open;endSize=8;strokeColor=#ff0000;rounded=0;" edge="1" source="mQbM6AG0IIh_m1ekyTbO-14" parent="1">
          <mxGeometry x="-1" relative="1" as="geometry">
            <mxPoint x="410" y="560" as="targetPoint" />
          </mxGeometry>
        </mxCell>
        <mxCell id="mQbM6AG0IIh_m1ekyTbO-51" value="" style="endArrow=classic;html=1;rounded=0;exitX=0;exitY=0.5;exitDx=0;exitDy=0;" edge="1" parent="1" source="mQbM6AG0IIh_m1ekyTbO-50">
          <mxGeometry width="50" height="50" relative="1" as="geometry">
            <mxPoint x="470" y="990" as="sourcePoint" />
            <mxPoint x="630" y="1060" as="targetPoint" />
          </mxGeometry>
        </mxCell>
        <mxCell id="mQbM6AG0IIh_m1ekyTbO-57" value="" style="endArrow=classic;html=1;rounded=0;exitX=0.122;exitY=0.13;exitDx=0;exitDy=0;exitPerimeter=0;" edge="1" parent="1" source="mQbM6AG0IIh_m1ekyTbO-55">
          <mxGeometry width="50" height="50" relative="1" as="geometry">
            <mxPoint x="310" y="1130" as="sourcePoint" />
            <mxPoint x="360" y="1150" as="targetPoint" />
          </mxGeometry>
        </mxCell>
        <mxCell id="mQbM6AG0IIh_m1ekyTbO-58" value="" style="endArrow=classic;html=1;rounded=0;exitX=0.122;exitY=0.517;exitDx=0;exitDy=0;exitPerimeter=0;" edge="1" parent="1" source="mQbM6AG0IIh_m1ekyTbO-55">
          <mxGeometry width="50" height="50" relative="1" as="geometry">
            <mxPoint x="310" y="1130" as="sourcePoint" />
            <mxPoint x="480" y="1150" as="targetPoint" />
          </mxGeometry>
        </mxCell>
        <mxCell id="mQbM6AG0IIh_m1ekyTbO-64" value="" style="endArrow=classic;html=1;rounded=0;entryX=0.5;entryY=0;entryDx=0;entryDy=0;" edge="1" parent="1" target="mQbM6AG0IIh_m1ekyTbO-65">
          <mxGeometry width="50" height="50" relative="1" as="geometry">
            <mxPoint x="480" y="1290" as="sourcePoint" />
            <mxPoint x="420" y="1330" as="targetPoint" />
            <Array as="points">
              <mxPoint x="480" y="1310" />
            </Array>
          </mxGeometry>
        </mxCell>
        <mxCell id="mQbM6AG0IIh_m1ekyTbO-70" value="" style="endArrow=classic;html=1;rounded=0;exitX=0.367;exitY=1.026;exitDx=0;exitDy=0;exitPerimeter=0;" edge="1" parent="1" source="mQbM6AG0IIh_m1ekyTbO-68">
          <mxGeometry width="50" height="50" relative="1" as="geometry">
            <mxPoint x="600" y="1260" as="sourcePoint" />
            <mxPoint x="600" y="1290" as="targetPoint" />
          </mxGeometry>
        </mxCell>
      </root>
    </mxGraphModel>
  </diagram>
</mxfile>
